<svg version="1.2" xmlns="http://www.w3.org/2000/svg" viewBox="0 0 248 200" width="248" height="200"><style>.a{fill:#83b5d6;stroke:#83b5d6;stroke-miterlimit:10;stroke-width:176}.b{fill:#83b5d6;stroke:#030303;stroke-miterlimit:10;stroke-width:10}</style><path fill-rule="evenodd" class="a" d="m12 99.4l225.5 1.6z"/><path fill-rule="evenodd" class="b" d="m22.9 7.7h193.9zm2.5 185h193.9zm-17.3-14.2v-153.8zm232.6-0.1v-153.8zm-205.4-170c0 0-29.5-6.9-27.5 24.5m205-24.6c0 0 29.5-6.9 27.5 24.5m-0.1 137.1c0 0 8.5 23.8-30.3 22.2m-200.6-21.1c0 0-8.5 23.8 30.3 22.2"/><path fill-rule="evenodd" class="b" d="m157.5 110.2l82.6 63z"/><path fill-rule="evenodd" class="b" d="m97 114.9l-84.5 68.5z"/><path fill-rule="evenodd" class="b" d="m11.4 21.6l91.9 94.8z"/><path fill-rule="evenodd" class="b" d="m240.3 23.6l-91.9 94.8z"/><path fill-rule="evenodd" class="b" d="m101 114.3c0 0 24.8 33.5 48.5 2.8"/></svg>