<svg version="1.2" xmlns="http://www.w3.org/2000/svg" viewBox="0 0 100 100" width="100" height="100"><style>.a{fill:#83b5d6;stroke:#030303;stroke-miterlimit:10;stroke-width:4.5}.b{fill:#ccebff;stroke:#030303;stroke-miterlimit:10;stroke-width:4.5}.c{fill:#83b5d6;stroke:#83b5d6;stroke-miterlimit:10;stroke-width:12.5}.d{fill:none;stroke:#000;stroke-miterlimit:10;stroke-width:4.5}</style><path fill-rule="evenodd" class="a" d="m36.3 2.5c17.9 0 32.3 14.4 32.3 32.2 0 17.9-14.4 32.3-32.3 32.3-17.8 0-32.2-14.4-32.2-32.2 0-17.9 14.4-32.3 32.2-32.3z"/><path fill-rule="evenodd" class="a" d=""/><path fill-rule="evenodd" class="b" d="m36.4 13c12.3 0 22.2 9.9 22.2 22.1 0 12.3-9.9 22.1-22.2 22.1-12.2 0-22.1-9.8-22.1-22.1 0-12.2 9.9-22.1 22.1-22.1z"/><path fill-rule="evenodd" class="c" d="m60.7 57.5l32.9 35.7z"/><path fill-rule="evenodd" class="b" d="m64.2 53.4l30.8 31.8z"/><path fill-rule="evenodd" class="b" d="m56.2 61.4l30.8 31.8z"/><path fill-rule="evenodd" class="b" d="m94.6 84.9c5.4 5.4 0.1 9.3 0.1 9.3"/><path fill-rule="evenodd" class="d" d="m84.4 90.4c0 0 6.7 9.4 11.7 2.3"/><path fill-rule="evenodd" class="a" d="m64.2 53.4l30.8 31.8z"/></svg>